# xmcd
#
# Track frame offsets: 
#        150
#        17346
#        31944
#        45827
#        62753
#        78154
#        92410
#        107116
#        121364
#        137802
#        155138
#        171465
#        188420
#        205352
#        224205
#
# Disc length: 3179 seconds
#
# Revision: 0
# Processed by: cddbd v1.5.2PL0 Copyright (c) Steve Scherf et al.
# Submitted via: ExactAudioCopy v0.99pb4
#
DISCID=c90c690f
DTITLE=газманов олег - семь футов под килем
DYEAR=1900
DGENRE=
TTITLE0=семь футов под килем
TTITLE1=паруса
TTITLE2=солдаты
TTITLE3=два орла
TTITLE4=отговорила роща золотая
TTITLE5=лед и пламя
TTITLE6=марк, матвей, иоанн и лука
TTITLE7=нарисовать мечту
TTITLE8=посмотри мне в глаза
TTITLE9=муза и стерва
TTITLE10=не надо закрывать глаза
TTITLE11=измерение жизни
TTITLE12=дождись
TTITLE13=моя любовь
TTITLE14=солдаты
EXTD=
EXTT0=
EXTT1=
EXTT2=
EXTT3=
EXTT4=
EXTT5=
EXTT6=
EXTT7=
EXTT8=
EXTT9=
EXTT10=
EXTT11=
EXTT12=
EXTT13=
EXTT14=
PLAYORDER=
